<?xml version="1.0" standalone="no"?>
<!DOCTYPE svg PUBLIC "-//W3C//DTD SVG 20010904//EN"
 "http://www.w3.org/TR/2001/REC-SVG-20010904/DTD/svg10.dtd">
<svg version="1.0" xmlns="http://www.w3.org/2000/svg"
 width="1200.000000pt" height="1000.000000pt" viewBox="0 0 1200.000000 1000.000000"
 preserveAspectRatio="xMidYMid meet">

<g transform="translate(0.000000,1000.000000) scale(0.100000,-0.100000)"
fill="#0D6EFD" stroke="none">
<path d="M5675 9989 c-1260 -89 -2413 -780 -3093 -1854 -537 -848 -730 -1851
-551 -2855 40 -222 138 -560 222 -763 l23 -58 499 596 c403 482 500 594 511
583 6 -7 326 -464 709 -1016 384 -552 701 -1000 705 -995 7 7 350 600 1108
1911 80 138 149 252 152 252 4 0 315 -470 691 -1044 637 -973 685 -1044 700
-1028 9 9 308 413 664 897 356 484 651 883 654 887 4 4 242 -175 530 -398 288
-223 527 -402 531 -397 25 26 124 396 159 593 48 267 55 362 55 700 1 347 -8
455 -59 736 -160 866 -622 1677 -1295 2268 -804 707 -1850 1060 -2915 985z
m475 -577 c88 -48 195 -158 243 -249 98 -187 102 -396 10 -582 -28 -56 -58
-97 -118 -157 -87 -88 -141 -122 -255 -162 -65 -23 -91 -26 -195 -26 -104 0
-130 4 -193 26 -41 15 -99 42 -130 60 -74 43 -179 150 -216 219 l-30 54 35
-27 c244 -195 569 -180 783 36 114 114 166 242 166 404 0 155 -48 277 -155
391 -68 73 -58 75 55 13z m-549 -156 l-7 -69 70 -32 70 -33 -77 -17 -77 -17 0
-37 c0 -20 -3 -53 -6 -74 l-7 -38 -38 65 -39 64 -62 -14 c-34 -8 -66 -13 -71
-11 -5 1 12 26 38 55 l47 52 -36 61 c-20 34 -35 63 -33 66 2 2 33 -10 69 -26
l64 -29 48 55 c27 30 50 53 51 51 2 -2 0 -34 -4 -72z m-1489 -1475 c24 -20 48
-30 87 -34 29 -4 56 -9 59 -11 3 -3 -2 -25 -11 -48 -9 -24 -21 -76 -26 -116
-6 -39 -19 -91 -29 -115 -13 -32 -17 -69 -16 -152 1 -128 16 -175 64 -200 30
-15 34 -15 77 6 56 27 124 83 284 235 134 125 231 200 277 214 39 11 115 -4
181 -37 132 -64 399 -302 524 -468 95 -126 95 -124 53 -279 -78 -291 -93 -463
-55 -664 l21 -113 -50 -107 c-45 -96 -162 -408 -162 -432 0 -13 -66 -30 -115
-30 -77 0 -86 34 -18 69 31 16 46 34 82 107 24 49 64 145 89 214 56 159 55
200 -11 375 -25 66 -49 138 -53 160 l-8 40 -7 -45 c-4 -25 -8 -98 -8 -162 -1
-133 -13 -175 -119 -428 -34 -80 -67 -167 -74 -193 -11 -42 -16 -48 -46 -53
-37 -7 -139 -1 -149 9 -11 12 39 58 83 77 38 17 42 23 73 106 17 48 52 153 76
232 65 208 62 270 -21 519 -14 43 -27 79 -29 81 -1 2 -31 -4 -66 -14 -97 -25
-179 -22 -287 11 -51 15 -94 26 -97 24 -7 -7 23 -137 50 -220 44 -131 48 -179
20 -253 -33 -89 -59 -193 -94 -386 -22 -118 -36 -169 -48 -177 -9 -7 -39 -13
-66 -13 -38 0 -53 -5 -66 -21 -14 -17 -32 -22 -89 -27 -91 -6 -112 6 -84 50
10 16 34 37 53 46 l34 17 6 140 c4 77 10 328 14 557 9 457 11 438 -50 464 -25
10 -35 9 -67 -7 -48 -25 -72 -24 -133 5 -89 41 -179 165 -192 264 -3 20 2 88
11 150 9 62 16 173 16 246 l0 134 -47 31 c-37 25 -57 31 -100 31 -59 0 -123
22 -123 42 0 7 10 31 23 53 29 53 92 85 167 85 36 0 67 7 90 19 48 27 64 26
102 -8z m2268 -1 c21 -23 37 -30 67 -31 21 -1 48 -4 60 -7 21 -7 21 -8 6 -47
-8 -22 -19 -73 -24 -113 -5 -40 -18 -95 -30 -122 -18 -43 -21 -64 -18 -169 3
-102 7 -124 25 -148 33 -44 61 -54 103 -37 59 25 102 59 287 229 210 193 262
228 336 226 67 -1 165 -47 273 -128 214 -160 465 -445 465 -528 0 -16 -9 -59
-20 -95 -11 -36 -34 -132 -52 -215 -39 -187 -42 -343 -10 -499 l21 -99 -33
-66 c-40 -79 -113 -264 -151 -381 -15 -47 -34 -92 -42 -100 -10 -11 -35 -15
-87 -15 -41 0 -77 3 -81 7 -13 13 16 47 50 59 31 11 41 25 79 104 48 99 108
253 126 328 16 62 2 137 -51 269 -21 54 -42 116 -45 139 -12 74 -24 19 -24
-111 0 -150 -10 -196 -86 -380 -31 -74 -71 -178 -91 -230 -19 -52 -40 -98 -46
-103 -15 -10 -153 -5 -163 6 -15 14 11 42 67 71 l55 29 75 221 c71 214 74 224
74 316 0 85 -5 111 -45 238 -40 128 -47 142 -65 137 -11 -3 -57 -12 -102 -20
-90 -16 -132 -12 -250 25 -36 11 -70 20 -75 20 -15 0 -1 -78 38 -204 51 -167
52 -192 10 -316 -32 -97 -67 -250 -96 -425 -6 -39 -15 -77 -20 -84 -5 -9 -32
-16 -67 -19 -43 -3 -62 -9 -74 -25 -22 -28 -175 -39 -185 -14 -8 22 29 72 65
86 28 12 29 16 35 89 4 42 11 291 16 552 10 523 11 517 -49 536 -29 9 -40 8
-68 -9 -117 -68 -323 118 -323 293 0 30 7 105 15 165 8 61 15 158 15 216 0 91
-3 110 -20 131 -27 36 -80 58 -134 58 -61 0 -116 23 -116 48 0 10 10 34 23 52
39 58 67 72 163 81 57 5 92 13 103 23 24 25 60 19 91 -14z"/>
<path d="M4527 6258 c-3 -106 -10 -187 -18 -208 -13 -36 -20 -422 -8 -434 4
-4 22 3 40 16 l34 22 43 216 c46 232 50 285 27 373 -24 94 -76 187 -104 187
-5 0 -11 -78 -14 -172z"/>
<path d="M6800 6338 c0 -114 -16 -273 -30 -298 -14 -26 -18 -406 -5 -419 14
-14 74 25 80 53 88 406 95 495 53 614 -26 71 -70 142 -89 142 -5 0 -9 -41 -9
-92z"/>
<path d="M801 3680 c-129 -94 -407 -581 -722 -1265 -61 -132 -76 -172 -66
-181 33 -30 287 -230 404 -318 l133 -99 -29 -36 c-150 -190 -269 -451 -306
-674 -21 -121 -16 -326 9 -404 39 -122 143 -226 263 -263 60 -18 92 -20 429
-20 418 0 423 -1 684 -85 208 -67 265 -79 324 -71 63 10 124 58 159 126 25 48
28 63 24 118 -6 77 -45 160 -94 201 -50 41 -135 55 -278 47 -92 -6 -120 -4
-151 9 -101 42 -100 98 4 225 24 30 51 69 59 86 l15 31 282 -142 c1278 -642
2608 -955 4056 -955 1364 0 2640 284 3855 858 174 82 375 184 443 224 18 11
34 19 36 17 2 -2 11 -20 21 -39 10 -19 37 -57 60 -85 75 -88 95 -154 57 -188
-44 -40 -88 -48 -213 -41 -163 9 -228 -5 -285 -61 -49 -49 -84 -134 -84 -203
0 -97 76 -199 165 -224 57 -15 141 1 343 66 263 85 268 86 686 86 337 0 369 1
430 20 106 33 186 103 235 205 39 80 51 146 51 269 0 287 -121 613 -321 868
l-29 36 147 113 c184 139 380 296 389 310 13 22 -308 686 -476 983 -175 311
-295 469 -364 481 -17 3 -366 5 -776 3 -717 -3 -746 -4 -785 -23 -91 -44 -174
-162 -215 -305 -34 -114 -39 -327 -12 -485 35 -205 121 -421 255 -644 31 -52
57 -98 57 -103 0 -12 -459 -235 -650 -316 -1188 -500 -2455 -704 -3690 -591
-840 76 -1696 297 -2462 637 -138 62 -517 248 -530 260 -4 4 21 52 54 107 180
296 264 549 274 830 5 127 3 165 -14 248 -37 177 -124 311 -235 363 l-52 24
-761 0 -761 0 -42 -30z m151 -92 c13 -21 10 -25 -47 -70 -67 -52 -102 -102
-116 -166 -8 -41 -7 -57 9 -100 59 -154 342 -442 687 -697 569 -422 1297 -793
2040 -1040 867 -288 1708 -418 2605 -402 658 12 1232 92 1873 262 956 254
1908 711 2597 1248 373 291 610 557 610 686 0 81 -51 165 -134 222 -40 27 -46
53 -17 69 31 16 57 12 91 -16 42 -36 180 -246 285 -434 88 -159 308 -596 389
-775 l45 -100 -27 -23 c-15 -13 -101 -80 -192 -150 -689 -532 -1341 -925
-2070 -1247 -1344 -595 -2870 -842 -4380 -709 -958 84 -1861 311 -2735 687
-343 147 -757 361 -1110 572 -191 114 -565 364 -766 512 -175 129 -459 351
-459 359 0 22 230 498 345 715 164 309 279 492 364 582 32 34 40 38 70 33 19
-3 38 -11 43 -18z m1433 -1 c120 -68 194 -274 182 -512 -12 -246 -89 -483
-239 -737 -43 -73 -60 -81 -97 -47 -47 44 -53 102 -16 171 68 129 -8 220 -141
169 -94 -36 -134 -30 -273 40 -108 55 -132 63 -206 70 -138 14 -206 55 -221
134 -7 37 2 54 83 174 51 75 58 116 43 236 -25 201 -114 291 -296 303 -47 3
-95 0 -113 -6 -28 -10 -31 -9 -31 9 0 19 12 19 643 19 l642 0 40 -23z m8555
11 c0 -10 -27 -13 -102 -13 -112 0 -161 -14 -224 -62 -50 -38 -92 -131 -105
-235 -18 -137 -8 -171 86 -304 48 -67 52 -112 16 -163 -32 -45 -92 -69 -196
-80 -78 -8 -99 -15 -207 -70 -136 -69 -179 -76 -270 -41 -74 28 -104 26 -139
-9 -38 -38 -39 -96 -4 -165 27 -54 31 -86 14 -119 -19 -36 -51 -67 -70 -67
-33 0 -168 255 -224 424 -57 171 -70 252 -69 431 0 145 3 167 27 240 39 119
91 192 162 229 26 14 109 16 668 16 503 0 637 -3 637 -12z m-10246 -1948 c22
-8 26 -16 26 -47 0 -22 -11 -55 -25 -78 -26 -42 -32 -93 -15 -124 5 -10 54
-38 109 -61 111 -46 141 -72 211 -184 85 -135 149 -157 239 -82 23 19 51 38
62 41 63 20 129 -71 129 -177 0 -69 -17 -107 -65 -143 -41 -32 -35 -33 -210
48 -272 125 -423 166 -499 137 -43 -16 -116 -91 -146 -150 -34 -67 -54 -164
-48 -225 3 -25 1 -45 -4 -45 -24 0 -107 100 -128 156 -55 145 -28 437 60 630
55 122 166 262 235 298 35 19 36 19 69 6z m10707 -21 c33 -23 102 -104 148
-172 50 -73 86 -161 117 -282 24 -95 28 -129 28 -255 1 -130 -2 -151 -23 -204
-22 -56 -105 -156 -129 -156 -5 0 -7 22 -4 48 10 107 -44 249 -122 320 -75 69
-114 76 -241 42 -98 -26 -173 -55 -333 -129 -173 -80 -172 -79 -215 -42 -47
42 -60 78 -55 153 5 77 31 134 70 154 38 20 66 13 118 -31 91 -76 151 -56 237
79 71 111 104 140 215 187 54 23 103 50 108 60 17 32 11 83 -15 121 -34 50
-35 115 -2 128 28 12 63 4 98 -21z m-10637 -703 c35 -14 66 -72 66 -120 0 -22
-6 -25 -69 -37 -80 -14 -99 -7 -147 56 -26 35 -26 36 -8 57 27 30 75 58 102
58 12 0 38 -6 56 -14z m10574 0 c15 -8 38 -26 51 -40 l24 -25 -27 -36 c-48
-63 -67 -70 -147 -56 -63 12 -69 15 -69 37 0 13 7 42 17 65 24 61 92 86 151
55z m-10226 -119 c78 -36 175 -76 213 -88 75 -25 133 -27 450 -18 138 4 153 2
185 -17 45 -26 100 -129 100 -185 0 -114 -88 -198 -196 -185 -28 3 -135 33
-235 65 -273 88 -293 91 -610 91 l-271 0 35 40 c71 78 102 171 94 282 -3 40
-8 83 -12 95 l-7 23 55 -19 c30 -11 120 -48 199 -84z m10018 57 c-8 -22 -11
-69 -8 -118 5 -95 35 -170 93 -235 l37 -41 -271 0 c-317 0 -337 -3 -610 -91
-223 -72 -271 -79 -328 -50 -101 51 -130 164 -71 279 49 95 113 112 354 92
241 -20 310 -8 529 93 123 56 278 117 283 112 2 -2 -1 -20 -8 -41z"/>
<path d="M10991 2721 c-35 -9 -320 -386 -321 -423 0 -33 11 -35 190 -41 69 -3
136 -9 148 -14 23 -9 21 -11 -30 -45 -29 -20 -79 -54 -110 -76 l-57 -39 -53
18 c-69 24 -172 25 -218 1 -53 -26 -72 -72 -67 -160 8 -149 75 -169 227 -71
49 31 65 38 72 27 15 -22 1 -87 -26 -123 -61 -80 6 -148 74 -75 34 36 50 97
50 187 l0 68 351 234 c250 168 354 242 361 260 6 16 6 42 1 64 -8 38 -10 39
-98 73 -133 50 -168 57 -210 40 -57 -24 -100 -63 -130 -118 -27 -49 -27 -52
-10 -65 33 -23 58 -16 82 26 17 30 33 43 68 54 25 9 54 14 63 11 34 -11 62
-28 60 -35 -3 -7 -315 -229 -323 -229 -2 0 -1 8 2 18 8 31 -18 39 -145 44 -67
3 -125 8 -128 11 -4 3 48 74 115 157 123 152 140 187 109 218 -13 13 -12 13
-47 3z m-296 -711 c18 -20 18 -21 -4 -44 -13 -13 -42 -34 -66 -47 -36 -19 -46
-21 -59 -10 -20 17 -20 50 0 79 30 44 99 55 129 22z"/>
<path d="M680 2665 l-34 -35 37 -38 37 -37 35 35 35 36 -38 37 -38 37 -34 -35z"/>
<path d="M1057 2648 c-3 -7 -44 -105 -92 -218 -48 -113 -93 -224 -101 -248
-16 -53 -26 -43 210 -205 585 -402 1179 -720 1816 -972 228 -90 504 -185 536
-185 14 0 38 7 55 15 29 15 30 15 55 -15 62 -73 174 -107 248 -76 37 15 39 15
67 -8 31 -26 105 -46 171 -46 23 0 49 -6 57 -14 18 -15 555 -121 570 -112 14
9 44 104 38 120 -3 7 -23 17 -44 20 -31 6 -55 24 -126 97 -91 94 -164 139
-222 138 -51 0 -120 -32 -120 -54 0 -22 17 -24 87 -10 51 10 82 0 129 -42 35
-32 86 -110 77 -118 -2 -1 -92 16 -201 39 l-197 41 6 86 7 86 -44 7 c-56 9
-69 -7 -69 -84 0 -31 -6 -64 -12 -73 -12 -16 -18 -16 -66 -3 -81 21 -87 30
-83 136 3 89 2 90 -24 100 -14 5 -39 10 -54 10 -27 0 -29 -3 -35 -52 -3 -29
-6 -70 -6 -90 l0 -38 -44 0 c-41 0 -103 15 -119 30 -4 3 -4 55 1 114 9 122 7
126 -66 126 -44 0 -43 3 -58 -122 -3 -32 -10 -58 -15 -58 -16 0 -216 70 -374
130 -369 141 -836 361 -1145 538 -184 105 -449 268 -485 296 l-25 21 25 78
c31 98 31 103 -5 122 -48 25 -55 20 -80 -60 -13 -41 -27 -75 -31 -75 -12 0
-241 148 -263 170 -30 30 -23 65 44 215 34 77 71 159 81 183 l19 43 -35 15
c-42 17 -51 18 -58 2z"/>
<path d="M540 2573 c-23 -9 -38 -31 -76 -109 -67 -138 -51 -237 49 -298 49
-30 124 -44 171 -32 60 15 138 131 196 290 l33 90 -23 18 c-45 37 -69 21 -104
-67 -74 -182 -94 -204 -170 -181 -97 30 -107 65 -46 167 46 78 48 92 18 113
-24 17 -25 17 -48 9z"/>
<path d="M1270 2375 l-34 -35 37 -38 37 -37 37 37 37 38 -34 35 c-19 19 -37
35 -40 35 -3 0 -21 -16 -40 -35z"/>
<path d="M1382 2287 l-32 -33 38 -37 38 -37 32 33 c18 18 32 38 32 43 0 13
-53 64 -66 64 -6 0 -24 -15 -42 -33z"/>
<path d="M10183 1890 c-86 -20 -151 -92 -184 -203 -11 -40 -22 -77 -24 -84 -2
-7 -40 -31 -85 -53 l-81 -40 -20 47 c-11 27 -27 63 -34 81 -21 49 -74 41 -103
-15 -10 -18 -8 -34 13 -89 14 -36 25 -72 25 -79 0 -10 -283 -127 -460 -191
-930 -333 -1764 -517 -2598 -572 -89 -6 -126 -13 -133 -23 -17 -27 -10 -110
12 -145 11 -19 26 -34 32 -34 28 0 378 42 547 65 770 106 1485 280 2113 514
344 129 848 358 874 397 8 13 23 62 34 109 28 131 59 170 130 163 29 -3 34 -7
37 -31 3 -21 -6 -38 -33 -68 -46 -51 -45 -83 3 -87 45 -5 93 33 126 100 32 64
33 101 4 158 -33 64 -117 99 -195 80z"/>
<path d="M8362 1227 l-32 -33 38 -37 38 -37 32 33 c18 18 32 38 32 43 0 13
-53 64 -66 64 -6 0 -24 -15 -42 -33z"/>
<path d="M8210 1205 l-34 -35 37 -38 37 -37 37 37 37 38 -34 35 c-19 19 -37
35 -40 35 -3 0 -21 -16 -40 -35z"/>
<path d="M5551 991 c-7 -12 -8 -80 -4 -185 l6 -166 -120 0 -120 0 -7 32 c-21
105 -223 175 -339 117 -113 -57 -148 -140 -84 -204 45 -45 125 -68 222 -63 41
2 75 2 75 0 0 -2 -7 -16 -15 -32 -19 -37 -62 -70 -90 -70 -42 0 -73 -63 -42
-88 51 -41 152 2 246 104 l60 66 403 -3 403 -4 3 127 c2 117 1 129 -18 148
-27 27 -66 26 -82 -2 -6 -13 -12 -48 -12 -78 l-1 -55 -182 -3 -183 -2 0 168
c0 196 -5 212 -70 212 -28 0 -42 -5 -49 -19z m-403 -307 c17 -11 22 -23 20
-42 -3 -26 -5 -27 -74 -30 -86 -3 -107 11 -80 53 30 46 81 53 134 19z"/>
<path d="M4170 545 l-34 -35 37 -38 37 -37 37 37 37 38 -34 35 c-19 19 -37 35
-40 35 -3 0 -21 -16 -40 -35z"/>
<path d="M4360 545 l-34 -35 37 -38 37 -37 35 35 35 36 -38 37 -38 37 -34 -35z"/>
<path d="M4267 452 l-37 -38 38 -37 38 -37 37 38 37 38 -38 37 -38 37 -37 -38z"/>
<path d="M5867 422 l-37 -38 35 -34 35 -34 38 37 37 37 -35 35 -36 35 -37 -38z"/>
</g>
</svg>
