<?xml version="1.0" standalone="no"?>
<!DOCTYPE svg PUBLIC "-//W3C//DTD SVG 20010904//EN"
 "http://www.w3.org/TR/2001/REC-SVG-20010904/DTD/svg10.dtd">
<svg version="1.0" xmlns="http://www.w3.org/2000/svg"
 width="260.000000pt" height="266.000000pt" viewBox="0 0 260.000000 266.000000"
 preserveAspectRatio="xMidYMid meet">

<g transform="translate(0.000000,266.000000) scale(0.100000,-0.100000)"
fill="#0D6EFD" stroke="none">
<path d="M1055 2513 c-364 -213 -566 -369 -720 -553 -86 -104 -168 -234 -204
-329 -46 -120 -47 -145 -3 -63 157 288 456 514 925 698 80 31 106 46 136 80
39 44 61 99 61 150 0 34 -18 102 -28 107 -4 2 -79 -38 -167 -90z"/>
<path d="M1845 2404 c-502 -481 -1059 -922 -1386 -1098 -177 -95 -314 -122
-364 -72 -13 13 -27 41 -30 62 -10 56 -13 63 -14 26 -1 -49 24 -99 61 -122 26
-17 46 -20 99 -18 l66 3 -61 -66 c-84 -91 -118 -155 -114 -216 3 -41 7 -50 37
-70 29 -20 47 -23 120 -23 47 0 103 4 124 9 20 5 37 8 37 7 0 -1 -33 -35 -74
-77 -85 -86 -100 -125 -69 -168 11 -14 35 -31 54 -38 69 -24 337 -11 498 26
l43 9 -95 -88 c-143 -135 -170 -220 -91 -289 44 -39 57 -41 16 -3 -17 16 -34
41 -38 56 -29 117 244 309 623 437 323 110 605 229 934 395 105 53 206 109
225 126 77 68 99 174 56 271 l-21 48 -58 -44 c-156 -118 -442 -297 -699 -438
-469 -257 -882 -416 -1207 -465 -148 -22 -227 -6 -227 45 0 26 52 100 107 154
43 42 65 53 164 87 178 59 409 161 719 316 455 228 1133 613 1193 678 64 67
92 176 68 261 -20 74 -21 74 -117 -2 -227 -179 -751 -538 -1104 -758 -379
-236 -719 -416 -900 -476 -124 -41 -234 -50 -270 -21 -18 14 -24 29 -23 55 1
47 53 141 113 209 42 47 58 58 110 72 279 79 806 387 1397 817 242 176 283
224 283 331 0 59 -44 160 -69 157 -3 0 -55 -47 -116 -105z"/>
<path d="M2142 585 c-18 -8 -79 -48 -135 -88 -281 -204 -541 -328 -781 -372
-63 -12 -128 -16 -217 -13 -133 3 -135 -2 -14 -29 96 -22 331 -22 450 0 224
41 406 108 727 270 l257 130 -20 29 c-39 54 -94 82 -168 85 -43 2 -78 -2 -99
-12z"/>
</g>
</svg>
