<?xml version="1.0" encoding="utf-8"?>
<svg xmlns="http://www.w3.org/2000/svg" viewBox="0 0 24 24" width="384" height="384">
  <rect width="8" height="8" x="14" y="2" opacity=".35" fill="#0D6EFD" />
  <circle cx="6.5" cy="13.5" r="4.5" opacity=".35" fill="#0D6EFD" />
  <path d="M11,23H2c-1.105,0-2-0.895-2-2v0c0-1.105,0.895-2,2-2h9c1.105,0,2,0.895,2,2v0C13,22.105,12.105,23,11,23z" fill="#0D6EFD" />
  <path d="M21,1h-7c-1.105,0-2,0.895-2,2v9c0,0.824,0.941,1.294,1.6,0.8l1.867-1.4c0.346-0.26,0.767-0.4,1.2-0.4H21c1.105,0,2-0.895,2-2V3C23,1.895,22.105,1,21,1z M16.521,3.705c0-0.464,0.376-0.84,0.84-0.84c0.464,0,0.84,0.376,0.84,0.84v2.384c0,0.464-0.376,0.84-0.84,0.84c-0.464,0-0.84-0.376-0.84-0.84V3.705z M17.357,9.641c-0.762,0-0.912-0.701-0.912-0.975c0-0.268,0.17-0.987,0.912-0.987s0.921,0.719,0.921,0.987C18.278,8.94,18.119,9.641,17.357,9.641z" fill="#0D6EFD" />
</svg>