<?xml version="1.0" encoding="utf-8"?>
<svg xmlns="http://www.w3.org/2000/svg" viewBox="0 0 24 24" width="384" height="384">
  <path d="M19,20H5c-1.657,0-3-1.343-3-3V7c0-1.657,1.343-3,3-3h14c1.657,0,3,1.343,3,3v10C22,18.657,20.657,20,19,20z" opacity=".35" fill="#0D6EFD" />
  <path d="M10,13c-0.186,0-3.814,0-4,0c-0.552,0-1,0.448-1,1c0,0.552,0.448,1,1,1c0.186,0,3.814,0,4,0c0.552,0,1-0.448,1-1C11,13.448,10.552,13,10,13z" fill="#0D6EFD" />
  <rect width="20" height="3" x="2" y="8" fill="#0D6EFD" />
</svg>