<?xml version="1.0" encoding="utf-8"?>
<svg xmlns="http://www.w3.org/2000/svg" viewBox="0 0 64 64" width="512" height="512">
  <path d="M57,12H7c-2.209,0-4,1.791-4,4v32c0,2.209,1.791,4,4,4h50c2.209,0,4-1.791,4-4V16C61,13.791,59.209,12,57,12z M27.473,42L20,38.071L12.527,42l1.427-8.321l-6.046-5.893l8.355-1.214L20,19l3.737,7.571l8.355,1.214l-6.046,5.893L27.473,42z M37.5,48c-0.828,0-1.5-0.672-1.5-1.5s0.672-1.5,1.5-1.5s1.5,0.672,1.5,1.5S38.328,48,37.5,48z M43.5,48c-0.828,0-1.5-0.672-1.5-1.5s0.672-1.5,1.5-1.5s1.5,0.672,1.5,1.5S44.328,48,43.5,48z M49.5,48c-0.828,0-1.5-0.672-1.5-1.5s0.672-1.5,1.5-1.5s1.5,0.672,1.5,1.5S50.328,48,49.5,48z M55.5,48c-0.828,0-1.5-0.672-1.5-1.5s0.672-1.5,1.5-1.5s1.5,0.672,1.5,1.5S56.328,48,55.5,48z" fill="#0D6EFD" />
</svg>