<?xml version="1.0" encoding="utf-8"?>
<svg xmlns="http://www.w3.org/2000/svg" viewBox="0 0 24 24" width="384" height="384">
  <circle cx="12" cy="7" r="5" opacity=".35" fill="#0D6EFD" />
  <path d="M14.599,20.508l5.025-5.025C19.155,15.18,18.6,15,18,15H6c-1.657,0-3,1.343-3,3c0,1.657,1.343,3,3,3h8.247C14.342,20.822,14.454,20.653,14.599,20.508z" fill="#0D6EFD" />
  <path d="M23.138,14.376c-0.827-0.595-1.987-0.42-2.707,0.3l-5.832,5.832C14.216,20.892,14,21.412,14,21.955l0,1.259C14,23.648,14.352,24,14.786,24l1.259,0c0.542,0,1.063-0.216,1.446-0.599l5.909-5.909C24.279,16.613,24.192,15.135,23.138,14.376z" opacity=".35" fill="#0D6EFD" />
</svg>