<?xml version="1.0" encoding="utf-8"?>
<svg xmlns="http://www.w3.org/2000/svg" viewBox="0 0 24 24" width="480" height="480">
  <path d="M9 2C8.448 2 8 2.448 8 3L8 5L8 6L8 7L6 7L6 5L4 5C2.897 5 2 5.897 2 7L2 18C2 19.103 2.897 20 4 20L20 20C21.103 20 22 19.103 22 18L22 7C22 5.897 21.103 5 20 5L18 5L18 7L16 7L16 6L16 5L16 3C16 2.448 15.552 2 15 2L9 2 z M 10 4L14 4L14 5L10 5L10 4 z M 14.5 10C15.328 10 16 10.672 16 11.5C16 12.328 15.328 13 14.5 13C13.672 13 13 12.328 13 11.5C13 10.672 13.672 10 14.5 10 z M 18.486328 13.171875L19.486328 15.171875L14.828125 17.486328L13.828125 15.486328L18.486328 13.171875 z" fill="#0D6EFD" />
</svg>